# xmcd
#
# Track frame offsets:
# 150
# 13714
# 26057
# 39856
# 53282
# 67235
# 79809
# 94274
# 108206
# 120079
# 134243
# 145318
# 158849
# 171982
# 186779
# 200787
# 214391
# 228011
# 241686
# 256506
# 270844
# 283674
# 297713
# 310329
# 323836
#
# Disc length: 4502 seconds
#
# Revision: 0
# Processed by: cddbd v1.4PL0 Copyright (c) Steve Scherf et al.
# Submitted via: Axialis_AX_CDPlayer 2.6
#
DISCID=65119419
DTITLE=Lonnie Johnson - Hot Fingers
DYEAR=1900
DGENRE=
TTITLE0=Hot Fingers
TTITLE1=South Bound Water
TTITLE2=Roamin' Rambler Blues
TTITLE3=Rocks in My Bed
TTITLE4=I Love You Mary Lou
TTITLE5=Untitles
TTITLE6=Deep Minor Rhythm Stomp
TTITLE7=Life Saver Blues
TTITLE8=Swing Out Rhythm
TTITLE9=To Do This You Got To Know How
TTITLE10=Love Story Blues
TTITLE11=6/88 Glide
TTITLE12=Stompin' 'em Along Slow
TTITLE13=Bullfrog Moan
TTITLE14=Blue Room Blues
TTITLE15=Playing With the Strings
TTITLE16=Two Tone Stomp
TTITLE17=Jet Black Blues
TTITLE18=Four Hands are Better Than Two
TTITLE19=Winnie the Wailer
TTITLE20=Away Down in the Alley Blues
TTITLE21=A Handfull of Riffs
TTITLE22=In Love Again
TTITLE23=Blue Blood Blues
TTITLE24=Uncle Ned,  Don't Use Your Head
EXTD=
EXTT0=
EXTT1=
EXTT2=
EXTT3=
EXTT4=
EXTT5=
EXTT6=
EXTT7=
EXTT8=
EXTT9=
EXTT10=
EXTT11=
EXTT12=
EXTT13=
EXTT14=
EXTT15=
EXTT16=
EXTT17=
EXTT18=
EXTT19=
EXTT20=
EXTT21=
EXTT22=
EXTT23=
EXTT24=
PLAYORDER=
